<mxfile host="app.diagrams.net" modified="2023-06-03T14:37:11.853Z" agent="5.0 (Windows NT 10.0; Win64; x64) AppleWebKit/537.36 (KHTML, like Gecko) Chrome/114.0.0.0 Safari/537.36 Edg/114.0.1823.37" version="20.6.0" etag="LDNfC-Mnkiw9UV9wFaQQ" type="github">
  <diagram id="gwxpMUh3-PogN4t1I2-Z" name="Страница 1">
    <mxGraphModel dx="1673" dy="925" grid="1" gridSize="10" guides="1" tooltips="1" connect="1" arrows="1" fold="1" page="1" pageScale="1" pageWidth="827" pageHeight="1169" math="0" shadow="0">
      <root>
        <mxCell id="0" />
        <mxCell id="1" parent="0" />
        <mxCell id="dDkh-ASJdCxgS1SyLvqP-3" style="edgeStyle=orthogonalEdgeStyle;rounded=0;orthogonalLoop=1;jettySize=auto;html=1;exitX=0.5;exitY=1;exitDx=0;exitDy=0;" edge="1" parent="1" source="dDkh-ASJdCxgS1SyLvqP-1" target="dDkh-ASJdCxgS1SyLvqP-2">
          <mxGeometry relative="1" as="geometry" />
        </mxCell>
        <mxCell id="dDkh-ASJdCxgS1SyLvqP-1" value="Начало" style="rounded=1;whiteSpace=wrap;html=1;" vertex="1" parent="1">
          <mxGeometry x="330" y="90" width="120" height="20" as="geometry" />
        </mxCell>
        <mxCell id="dDkh-ASJdCxgS1SyLvqP-7" value="" style="edgeStyle=orthogonalEdgeStyle;rounded=0;orthogonalLoop=1;jettySize=auto;html=1;" edge="1" parent="1" source="dDkh-ASJdCxgS1SyLvqP-2" target="dDkh-ASJdCxgS1SyLvqP-6">
          <mxGeometry relative="1" as="geometry" />
        </mxCell>
        <mxCell id="dDkh-ASJdCxgS1SyLvqP-2" value="Обработанный текст" style="rounded=0;whiteSpace=wrap;html=1;" vertex="1" parent="1">
          <mxGeometry x="330" y="130" width="120" height="30" as="geometry" />
        </mxCell>
        <mxCell id="dDkh-ASJdCxgS1SyLvqP-9" value="" style="edgeStyle=orthogonalEdgeStyle;rounded=0;orthogonalLoop=1;jettySize=auto;html=1;" edge="1" parent="1" source="dDkh-ASJdCxgS1SyLvqP-6" target="dDkh-ASJdCxgS1SyLvqP-8">
          <mxGeometry relative="1" as="geometry" />
        </mxCell>
        <mxCell id="dDkh-ASJdCxgS1SyLvqP-6" value="Токенизация по словам (russian_tokens)" style="whiteSpace=wrap;html=1;rounded=0;" vertex="1" parent="1">
          <mxGeometry x="330" y="190" width="120" height="60" as="geometry" />
        </mxCell>
        <mxCell id="dDkh-ASJdCxgS1SyLvqP-11" value="" style="edgeStyle=orthogonalEdgeStyle;rounded=0;orthogonalLoop=1;jettySize=auto;html=1;" edge="1" parent="1" source="dDkh-ASJdCxgS1SyLvqP-8" target="dDkh-ASJdCxgS1SyLvqP-10">
          <mxGeometry relative="1" as="geometry" />
        </mxCell>
        <mxCell id="dDkh-ASJdCxgS1SyLvqP-16" value="" style="edgeStyle=orthogonalEdgeStyle;rounded=0;orthogonalLoop=1;jettySize=auto;html=1;" edge="1" parent="1" target="dDkh-ASJdCxgS1SyLvqP-14">
          <mxGeometry relative="1" as="geometry">
            <mxPoint x="390" y="390" as="sourcePoint" />
          </mxGeometry>
        </mxCell>
        <mxCell id="dDkh-ASJdCxgS1SyLvqP-41" style="edgeStyle=orthogonalEdgeStyle;rounded=0;orthogonalLoop=1;jettySize=auto;html=1;exitX=0;exitY=0.5;exitDx=0;exitDy=0;entryX=0;entryY=0.5;entryDx=0;entryDy=0;" edge="1" parent="1" source="dDkh-ASJdCxgS1SyLvqP-8" target="dDkh-ASJdCxgS1SyLvqP-31">
          <mxGeometry relative="1" as="geometry">
            <mxPoint x="320" y="920" as="targetPoint" />
            <Array as="points">
              <mxPoint x="250" y="330" />
              <mxPoint x="250" y="900" />
            </Array>
          </mxGeometry>
        </mxCell>
        <mxCell id="dDkh-ASJdCxgS1SyLvqP-8" value="russian_tokens if not in spec_chars" style="rhombus;whiteSpace=wrap;html=1;rounded=0;" vertex="1" parent="1">
          <mxGeometry x="310" y="280" width="160" height="100" as="geometry" />
        </mxCell>
        <mxCell id="dDkh-ASJdCxgS1SyLvqP-15" value="" style="edgeStyle=orthogonalEdgeStyle;rounded=0;orthogonalLoop=1;jettySize=auto;html=1;entryX=0.5;entryY=0;entryDx=0;entryDy=0;" edge="1" parent="1" source="dDkh-ASJdCxgS1SyLvqP-10" target="dDkh-ASJdCxgS1SyLvqP-14">
          <mxGeometry relative="1" as="geometry">
            <Array as="points">
              <mxPoint x="570" y="390" />
              <mxPoint x="390" y="390" />
            </Array>
          </mxGeometry>
        </mxCell>
        <mxCell id="dDkh-ASJdCxgS1SyLvqP-10" value="filtered_tokens_1" style="whiteSpace=wrap;html=1;rounded=0;" vertex="1" parent="1">
          <mxGeometry x="510" y="315" width="120" height="30" as="geometry" />
        </mxCell>
        <mxCell id="dDkh-ASJdCxgS1SyLvqP-12" value="да" style="text;html=1;align=center;verticalAlign=middle;resizable=0;points=[];autosize=1;strokeColor=none;fillColor=none;" vertex="1" parent="1">
          <mxGeometry x="460" y="300" width="40" height="30" as="geometry" />
        </mxCell>
        <mxCell id="dDkh-ASJdCxgS1SyLvqP-19" value="" style="edgeStyle=orthogonalEdgeStyle;rounded=0;orthogonalLoop=1;jettySize=auto;html=1;" edge="1" parent="1" source="dDkh-ASJdCxgS1SyLvqP-14" target="dDkh-ASJdCxgS1SyLvqP-17">
          <mxGeometry relative="1" as="geometry" />
        </mxCell>
        <mxCell id="dDkh-ASJdCxgS1SyLvqP-45" style="edgeStyle=orthogonalEdgeStyle;rounded=0;orthogonalLoop=1;jettySize=auto;html=1;exitX=0;exitY=0.5;exitDx=0;exitDy=0;" edge="1" parent="1" source="dDkh-ASJdCxgS1SyLvqP-14">
          <mxGeometry relative="1" as="geometry">
            <mxPoint x="330" y="900" as="targetPoint" />
            <Array as="points">
              <mxPoint x="260" y="475" />
              <mxPoint x="260" y="900" />
            </Array>
          </mxGeometry>
        </mxCell>
        <mxCell id="dDkh-ASJdCxgS1SyLvqP-14" value="filtered_tokens_1 if t not in stopwords" style="rhombus;whiteSpace=wrap;html=1;rounded=0;" vertex="1" parent="1">
          <mxGeometry x="300" y="420" width="180" height="110" as="geometry" />
        </mxCell>
        <mxCell id="dDkh-ASJdCxgS1SyLvqP-35" style="edgeStyle=orthogonalEdgeStyle;rounded=0;orthogonalLoop=1;jettySize=auto;html=1;entryX=1;entryY=0.5;entryDx=0;entryDy=0;" edge="1" parent="1" source="dDkh-ASJdCxgS1SyLvqP-17" target="dDkh-ASJdCxgS1SyLvqP-21">
          <mxGeometry relative="1" as="geometry">
            <Array as="points">
              <mxPoint x="570" y="565" />
            </Array>
          </mxGeometry>
        </mxCell>
        <mxCell id="dDkh-ASJdCxgS1SyLvqP-17" value="filtered_tokens_2" style="whiteSpace=wrap;html=1;rounded=0;" vertex="1" parent="1">
          <mxGeometry x="510" y="462.5" width="120" height="25" as="geometry" />
        </mxCell>
        <mxCell id="dDkh-ASJdCxgS1SyLvqP-20" value="да" style="text;html=1;align=center;verticalAlign=middle;resizable=0;points=[];autosize=1;strokeColor=none;fillColor=none;" vertex="1" parent="1">
          <mxGeometry x="470" y="445" width="40" height="30" as="geometry" />
        </mxCell>
        <mxCell id="dDkh-ASJdCxgS1SyLvqP-24" value="" style="edgeStyle=orthogonalEdgeStyle;rounded=0;orthogonalLoop=1;jettySize=auto;html=1;" edge="1" parent="1" source="dDkh-ASJdCxgS1SyLvqP-21" target="dDkh-ASJdCxgS1SyLvqP-23">
          <mxGeometry relative="1" as="geometry" />
        </mxCell>
        <mxCell id="dDkh-ASJdCxgS1SyLvqP-21" value="morph_tags" style="whiteSpace=wrap;html=1;" vertex="1" parent="1">
          <mxGeometry x="330" y="550" width="120" height="30" as="geometry" />
        </mxCell>
        <mxCell id="dDkh-ASJdCxgS1SyLvqP-26" value="" style="edgeStyle=orthogonalEdgeStyle;rounded=0;orthogonalLoop=1;jettySize=auto;html=1;" edge="1" parent="1" source="dDkh-ASJdCxgS1SyLvqP-23">
          <mxGeometry relative="1" as="geometry">
            <mxPoint x="390" y="660" as="targetPoint" />
          </mxGeometry>
        </mxCell>
        <mxCell id="dDkh-ASJdCxgS1SyLvqP-23" value="counts" style="whiteSpace=wrap;html=1;" vertex="1" parent="1">
          <mxGeometry x="330" y="610" width="120" height="25" as="geometry" />
        </mxCell>
        <mxCell id="dDkh-ASJdCxgS1SyLvqP-28" value="" style="edgeStyle=orthogonalEdgeStyle;rounded=0;orthogonalLoop=1;jettySize=auto;html=1;" edge="1" parent="1" target="dDkh-ASJdCxgS1SyLvqP-27">
          <mxGeometry relative="1" as="geometry">
            <mxPoint x="390" y="710" as="sourcePoint" />
          </mxGeometry>
        </mxCell>
        <mxCell id="dDkh-ASJdCxgS1SyLvqP-30" value="" style="edgeStyle=orthogonalEdgeStyle;rounded=0;orthogonalLoop=1;jettySize=auto;html=1;" edge="1" parent="1" source="dDkh-ASJdCxgS1SyLvqP-27" target="dDkh-ASJdCxgS1SyLvqP-29">
          <mxGeometry relative="1" as="geometry" />
        </mxCell>
        <mxCell id="dDkh-ASJdCxgS1SyLvqP-27" value="Вывод:&amp;nbsp; fdist(most_common(10))" style="shape=parallelogram;perimeter=parallelogramPerimeter;whiteSpace=wrap;html=1;fixedSize=1;" vertex="1" parent="1">
          <mxGeometry x="310" y="740" width="160" height="50" as="geometry" />
        </mxCell>
        <mxCell id="dDkh-ASJdCxgS1SyLvqP-32" value="" style="edgeStyle=orthogonalEdgeStyle;rounded=0;orthogonalLoop=1;jettySize=auto;html=1;" edge="1" parent="1" source="dDkh-ASJdCxgS1SyLvqP-29" target="dDkh-ASJdCxgS1SyLvqP-31">
          <mxGeometry relative="1" as="geometry" />
        </mxCell>
        <mxCell id="dDkh-ASJdCxgS1SyLvqP-29" value="Вывод: график с 10 значениями" style="shape=parallelogram;perimeter=parallelogramPerimeter;whiteSpace=wrap;html=1;fixedSize=1;" vertex="1" parent="1">
          <mxGeometry x="310" y="820" width="160" height="50" as="geometry" />
        </mxCell>
        <mxCell id="dDkh-ASJdCxgS1SyLvqP-31" value="Конец" style="rounded=1;whiteSpace=wrap;html=1;" vertex="1" parent="1">
          <mxGeometry x="330" y="890" width="120" height="30" as="geometry" />
        </mxCell>
        <mxCell id="dDkh-ASJdCxgS1SyLvqP-43" value="нет" style="text;html=1;align=center;verticalAlign=middle;resizable=0;points=[];autosize=1;strokeColor=none;fillColor=none;" vertex="1" parent="1">
          <mxGeometry x="260" y="305" width="40" height="30" as="geometry" />
        </mxCell>
        <mxCell id="dDkh-ASJdCxgS1SyLvqP-46" value="нет" style="text;html=1;align=center;verticalAlign=middle;resizable=0;points=[];autosize=1;strokeColor=none;fillColor=none;" vertex="1" parent="1">
          <mxGeometry x="260" y="445" width="40" height="30" as="geometry" />
        </mxCell>
        <mxCell id="dDkh-ASJdCxgS1SyLvqP-47" value="FreqDist (filtered_tokens)" style="shape=process;whiteSpace=wrap;html=1;backgroundOutline=1;" vertex="1" parent="1">
          <mxGeometry x="330" y="660" width="120" height="60" as="geometry" />
        </mxCell>
      </root>
    </mxGraphModel>
  </diagram>
</mxfile>
